<?xml version="1.0" encoding="UTF-8"?>
<svg version="1.1" xmlns="http://www.w3.org/2000/svg" width="512" height="512">
<path d="M0 0 C168.96 0 337.92 0 512 0 C512 168.96 512 337.92 512 512 C343.04 512 174.08 512 0 512 C0 343.04 0 174.08 0 0 Z " fill="#2195F2" transform="translate(0,0)"/>
<path d="M0 0 C15.84 0 31.68 0 48 0 C48 5.28 48 10.56 48 16 C63.84 16 79.68 16 96 16 C96 21.28 96 26.56 96 32 C80.16 32 64.32 32 48 32 C48 37.28 48 42.56 48 48 C42.72 48 37.44 48 32 48 C32 79.68 32 111.36 32 144 C37.28 144 42.56 144 48 144 C48 149.28 48 154.56 48 160 C53.28 160 58.56 160 64 160 C64 165.28 64 170.56 64 176 C90.4 176 116.8 176 144 176 C144 170.72 144 165.44 144 160 C149.28 160 154.56 160 160 160 C160 133.6 160 107.2 160 80 C154.72 80 149.44 80 144 80 C144 74.72 144 69.44 144 64 C138.72 64 133.44 64 128 64 C128 58.72 128 53.44 128 48 C143.84 48 159.68 48 176 48 C176 111.36 176 174.72 176 240 C7.04 240 -161.92 240 -336 240 C-336 181.92 -336 123.84 -336 64 C-330.72 64 -325.44 64 -320 64 C-320 85.12 -320 106.24 -320 128 C-298.88 128 -277.76 128 -256 128 C-256 106.88 -256 85.76 -256 64 C-240.16 64 -224.32 64 -208 64 C-208 69.28 -208 74.56 -208 80 C-202.72 80 -197.44 80 -192 80 C-192 101.12 -192 122.24 -192 144 C-186.72 144 -181.44 144 -176 144 C-176 149.28 -176 154.56 -176 160 C-170.72 160 -165.44 160 -160 160 C-160 165.28 -160 170.56 -160 176 C-149.44 176 -138.88 176 -128 176 C-128 170.72 -128 165.44 -128 160 C-112.16 160 -96.32 160 -80 160 C-80 165.28 -80 170.56 -80 176 C-69.44 176 -58.88 176 -48 176 C-48 170.72 -48 165.44 -48 160 C-42.72 160 -37.44 160 -32 160 C-32 154.72 -32 149.44 -32 144 C-26.72 144 -21.44 144 -16 144 C-16 138.72 -16 133.44 -16 128 C-10.72 128 -5.44 128 0 128 C0 112.16 0 96.32 0 80 C-15.84 80 -31.68 80 -48 80 C-48 85.28 -48 90.56 -48 96 C-37.44 96 -26.88 96 -16 96 C-16 101.28 -16 106.56 -16 112 C-31.84 112 -47.68 112 -64 112 C-64 101.44 -64 90.88 -64 80 C-95.68 80 -127.36 80 -160 80 C-160 58.88 -160 37.76 -160 16 C-107.2 16 -54.4 16 0 16 C0 10.72 0 5.44 0 0 Z " fill="#FEFEFE" transform="translate(336,272)"/>
<path d="M0 0 C10.56 0 21.12 0 32 0 C32 5.28 32 10.56 32 16 C37.28 16 42.56 16 48 16 C48 31.84 48 47.68 48 64 C58.56 64 69.12 64 80 64 C80 85.12 80 106.24 80 128 C95.84 128 111.68 128 128 128 C128 133.28 128 138.56 128 144 C170.24 144 212.48 144 256 144 C256 149.28 256 154.56 256 160 C261.28 160 266.56 160 272 160 C272 165.28 272 170.56 272 176 C298.4 176 324.8 176 352 176 C352 181.28 352 186.56 352 192 C336.16 192 320.32 192 304 192 C304 197.28 304 202.56 304 208 C251.2 208 198.4 208 144 208 C144 229.12 144 250.24 144 272 C175.68 272 207.36 272 240 272 C240 282.56 240 293.12 240 304 C255.84 304 271.68 304 288 304 C288 298.72 288 293.44 288 288 C277.44 288 266.88 288 256 288 C256 282.72 256 277.44 256 272 C271.84 272 287.68 272 304 272 C304 287.84 304 303.68 304 320 C298.72 320 293.44 320 288 320 C288 325.28 288 330.56 288 336 C282.72 336 277.44 336 272 336 C272 341.28 272 346.56 272 352 C266.72 352 261.44 352 256 352 C256 357.28 256 362.56 256 368 C245.44 368 234.88 368 224 368 C224 362.72 224 357.44 224 352 C208.16 352 192.32 352 176 352 C176 357.28 176 362.56 176 368 C165.44 368 154.88 368 144 368 C144 362.72 144 357.44 144 352 C138.72 352 133.44 352 128 352 C128 346.72 128 341.44 128 336 C122.72 336 117.44 336 112 336 C112 314.88 112 293.76 112 272 C106.72 272 101.44 272 96 272 C96 266.72 96 261.44 96 256 C80.16 256 64.32 256 48 256 C48 277.12 48 298.24 48 320 C26.88 320 5.76 320 -16 320 C-16 298.88 -16 277.76 -16 256 C-21.28 256 -26.56 256 -32 256 C-32 192.64 -32 129.28 -32 64 C-26.72 64 -21.44 64 -16 64 C-16 48.16 -16 32.32 -16 16 C-10.72 16 -5.44 16 0 16 C0 10.72 0 5.44 0 0 Z " fill="#21331D" transform="translate(32,80)"/>
<path d="M0 0 C21.12 0 42.24 0 64 0 C64 10.56 64 21.12 64 32 C85.12 32 106.24 32 128 32 C128 37.28 128 42.56 128 48 C112.16 48 96.32 48 80 48 C80 53.28 80 58.56 80 64 C85.28 64 90.56 64 96 64 C96 69.28 96 74.56 96 80 C101.28 80 106.56 80 112 80 C112 106.4 112 132.8 112 160 C106.72 160 101.44 160 96 160 C96 165.28 96 170.56 96 176 C69.6 176 43.2 176 16 176 C16 170.72 16 165.44 16 160 C10.72 160 5.44 160 0 160 C0 154.72 0 149.44 0 144 C-5.28 144 -10.56 144 -16 144 C-16 112.32 -16 80.64 -16 48 C-10.72 48 -5.44 48 0 48 C0 42.72 0 37.44 0 32 C15.84 32 31.68 32 48 32 C48 26.72 48 21.44 48 16 C32.16 16 16.32 16 0 16 C0 10.72 0 5.44 0 0 Z " fill="#AA0000" transform="translate(384,272)"/>
<path d="M0 0 C10.56 0 21.12 0 32 0 C32 21.12 32 42.24 32 64 C63.68 64 95.36 64 128 64 C128 74.56 128 85.12 128 96 C143.84 96 159.68 96 176 96 C176 90.72 176 85.44 176 80 C165.44 80 154.88 80 144 80 C144 74.72 144 69.44 144 64 C159.84 64 175.68 64 192 64 C192 79.84 192 95.68 192 112 C186.72 112 181.44 112 176 112 C176 117.28 176 122.56 176 128 C170.72 128 165.44 128 160 128 C160 133.28 160 138.56 160 144 C154.72 144 149.44 144 144 144 C144 149.28 144 154.56 144 160 C133.44 160 122.88 160 112 160 C112 154.72 112 149.44 112 144 C96.16 144 80.32 144 64 144 C64 149.28 64 154.56 64 160 C53.44 160 42.88 160 32 160 C32 154.72 32 149.44 32 144 C26.72 144 21.44 144 16 144 C16 138.72 16 133.44 16 128 C10.72 128 5.44 128 0 128 C0 85.76 0 43.52 0 0 Z " fill="#D5D4D4" transform="translate(144,288)"/>
<path d="M0 0 C52.8 0 105.6 0 160 0 C160 5.28 160 10.56 160 16 C165.28 16 170.56 16 176 16 C176 21.28 176 26.56 176 32 C202.4 32 228.8 32 256 32 C256 37.28 256 42.56 256 48 C240.16 48 224.32 48 208 48 C208 53.28 208 58.56 208 64 C144.64 64 81.28 64 16 64 C16 58.72 16 53.44 16 48 C10.72 48 5.44 48 0 48 C0 32.16 0 16.32 0 0 Z " fill="#C01717" transform="translate(128,224)"/>
<path d="M0 0 C58.08 0 116.16 0 176 0 C176 21.12 176 42.24 176 64 C154.88 64 133.76 64 112 64 C112 69.28 112 74.56 112 80 C122.56 80 133.12 80 144 80 C144 85.28 144 90.56 144 96 C128.16 96 112.32 96 96 96 C96 85.44 96 74.88 96 64 C64.32 64 32.64 64 0 64 C0 42.88 0 21.76 0 0 Z " fill="#FEFEFE" transform="translate(176,288)"/>
<path d="M0 0 C79.2 0 158.4 0 240 0 C240 10.56 240 21.12 240 32 C229.44 32 218.88 32 208 32 C208 37.28 208 42.56 208 48 C202.72 48 197.44 48 192 48 C192 53.28 192 58.56 192 64 C181.44 64 170.88 64 160 64 C160 53.44 160 42.88 160 32 C154.72 32 149.44 32 144 32 C144 37.28 144 42.56 144 48 C85.92 48 27.84 48 -32 48 C-32 42.72 -32 37.44 -32 32 C-16.16 32 -0.32 32 16 32 C16 26.72 16 21.44 16 16 C10.72 16 5.44 16 0 16 C0 10.72 0 5.44 0 0 Z " fill="#FEFFFF" transform="translate(272,0)"/>
<path d="M0 0 C31.68 0 63.36 0 96 0 C96 5.28 96 10.56 96 16 C101.28 16 106.56 16 112 16 C112 21.28 112 26.56 112 32 C117.28 32 122.56 32 128 32 C128 26.72 128 21.44 128 16 C133.28 16 138.56 16 144 16 C144 26.56 144 37.12 144 48 C138.72 48 133.44 48 128 48 C128 53.28 128 58.56 128 64 C117.44 64 106.88 64 96 64 C96 74.56 96 85.12 96 96 C85.44 96 74.88 96 64 96 C64 90.72 64 85.44 64 80 C53.44 80 42.88 80 32 80 C32 85.28 32 90.56 32 96 C26.72 96 21.44 96 16 96 C16 111.84 16 127.68 16 144 C10.72 144 5.44 144 0 144 C0 96.48 0 48.96 0 0 Z " fill="#E4F1FE" transform="translate(0,0)"/>
<path d="M0 0 C20.46 0 40.92 0 62 0 C62 4.95 62 9.9 62 15 C67.61 15 73.22 15 79 15 C79 20.28 79 25.56 79 31 C84.28 31 89.56 31 95 31 C95 36.28 95 41.56 95 47 C100.28 47 105.56 47 111 47 C111 73.4 111 99.8 111 127 C100.44 127 89.88 127 79 127 C79 121.72 79 116.44 79 111 C68.44 111 57.88 111 47 111 C47 105.72 47 100.44 47 95 C41.72 95 36.44 95 31 95 C31 84.44 31 73.88 31 63 C25.72 63 20.44 63 15 63 C15 47.16 15 31.32 15 15 C10.05 15 5.1 15 0 15 C0 10.05 0 5.1 0 0 Z " fill="#D40100" transform="translate(385,305)"/>
<path d="M0 0 C5.28 0 10.56 0 16 0 C16 21.12 16 42.24 16 64 C37.12 64 58.24 64 80 64 C80 42.88 80 21.76 80 0 C95.84 0 111.68 0 128 0 C128 26.4 128 52.8 128 80 C122.72 80 117.44 80 112 80 C112 85.28 112 90.56 112 96 C75.04 96 38.08 96 0 96 C0 64.32 0 32.64 0 0 Z " fill="#E5E4E4" transform="translate(0,336)"/>
<path d="M0 0 C5.28 0 10.56 0 16 0 C16 10.56 16 21.12 16 32 C26.56 32 37.12 32 48 32 C48 26.72 48 21.44 48 16 C53.28 16 58.56 16 64 16 C64 10.72 64 5.44 64 0 C74.56 0 85.12 0 96 0 C96 21.12 96 42.24 96 64 C80.16 64 64.32 64 48 64 C48 58.72 48 53.44 48 48 C5.76 48 -36.48 48 -80 48 C-80 42.72 -80 37.44 -80 32 C-101.12 32 -122.24 32 -144 32 C-144 26.72 -144 21.44 -144 16 C-96.48 16 -48.96 16 0 16 C0 10.72 0 5.44 0 0 Z " fill="#B7B8B9" transform="translate(416,32)"/>
<path d="M0 0 C5.28 0 10.56 0 16 0 C16 15.84 16 31.68 16 48 C31.84 48 47.68 48 64 48 C64 53.28 64 58.56 64 64 C90.4 64 116.8 64 144 64 C144 58.72 144 53.44 144 48 C154.56 48 165.12 48 176 48 C176 53.28 176 58.56 176 64 C170.72 64 165.44 64 160 64 C160 69.28 160 74.56 160 80 C154.72 80 149.44 80 144 80 C144 85.28 144 90.56 144 96 C133.44 96 122.88 96 112 96 C112 90.72 112 85.44 112 80 C96.16 80 80.32 80 64 80 C64 85.28 64 90.56 64 96 C53.44 96 42.88 96 32 96 C32 90.72 32 85.44 32 80 C26.72 80 21.44 80 16 80 C16 74.72 16 69.44 16 64 C10.72 64 5.44 64 0 64 C0 42.88 0 21.76 0 0 Z " fill="#850303" transform="translate(144,352)"/>
<path d="M0 0 C5.28 0 10.56 0 16 0 C16 10.56 16 21.12 16 32 C10.72 32 5.44 32 0 32 C0 37.28 0 42.56 0 48 C-10.56 48 -21.12 48 -32 48 C-32 58.56 -32 69.12 -32 80 C-42.56 80 -53.12 80 -64 80 C-64 74.72 -64 69.44 -64 64 C-74.56 64 -85.12 64 -96 64 C-96 58.72 -96 53.44 -96 48 C-101.28 48 -106.56 48 -112 48 C-112 42.72 -112 37.44 -112 32 C-106.72 32 -101.44 32 -96 32 C-96 26.72 -96 21.44 -96 16 C-85.44 16 -74.88 16 -64 16 C-64 21.28 -64 26.56 -64 32 C-58.72 32 -53.44 32 -48 32 C-48 26.72 -48 21.44 -48 16 C-32.16 16 -16.32 16 0 16 C0 10.72 0 5.44 0 0 Z " fill="#FEFEF8" transform="translate(128,16)"/>
<path d="M0 0 C10.56 0 21.12 0 32 0 C32 21.12 32 42.24 32 64 C63.68 64 95.36 64 128 64 C128 74.56 128 85.12 128 96 C112.16 96 96.32 96 80 96 C80 90.72 80 85.44 80 80 C58.88 80 37.76 80 16 80 C16 74.72 16 69.44 16 64 C10.72 64 5.44 64 0 64 C0 42.88 0 21.76 0 0 Z " fill="#CAC9C9" transform="translate(144,288)"/>
<path d="M0 0 C26.4 0 52.8 0 80 0 C80 5.28 80 10.56 80 16 C64.16 16 48.32 16 32 16 C32 21.28 32 26.56 32 32 C-31.36 32 -94.72 32 -160 32 C-160 26.72 -160 21.44 -160 16 C-154.39 16 -148.78 16 -143 16 C-143 11.05 -143 6.1 -143 1 C-138.05 1 -133.1 1 -128 1 C-128 5.95 -128 10.9 -128 16 C-85.76 16 -43.52 16 0 16 C0 10.72 0 5.44 0 0 Z " fill="#BB0101" transform="translate(304,256)"/>
<path d="M0 0 C21.12 0 42.24 0 64 0 C64 10.56 64 21.12 64 32 C85.12 32 106.24 32 128 32 C128 37.28 128 42.56 128 48 C106.55 48 85.1 48 63 48 C63 43.05 63 38.1 63 33 C42.54 33 22.08 33 1 33 C1 37.95 1 42.9 1 48 C5.95 48 10.9 48 16 48 C16 63.84 16 79.68 16 96 C21.28 96 26.56 96 32 96 C32 106.56 32 117.12 32 128 C26.72 128 21.44 128 16 128 C16 122.72 16 117.44 16 112 C10.72 112 5.44 112 0 112 C0 85.6 0 59.2 0 32 C15.84 32 31.68 32 48 32 C48 26.72 48 21.44 48 16 C32.16 16 16.32 16 0 16 C0 10.72 0 5.44 0 0 Z " fill="#BD0101" transform="translate(384,272)"/>
<path d="M0 0 C5.28 0 10.56 0 16 0 C16 5.28 16 10.56 16 16 C26.56 16 37.12 16 48 16 C48 10.72 48 5.44 48 0 C63.84 0 79.68 0 96 0 C96 5.28 96 10.56 96 16 C106.56 16 117.12 16 128 16 C128 10.72 128 5.44 128 0 C133.28 0 138.56 0 144 0 C144 10.56 144 21.12 144 32 C96.48 32 48.96 32 0 32 C0 21.44 0 10.88 0 0 Z " fill="#C5C5C5" transform="translate(160,432)"/>
<path d="M0 0 C21.12 0 42.24 0 64 0 C64 10.56 64 21.12 64 32 C53.44 32 42.88 32 32 32 C32 37.28 32 42.56 32 48 C26.72 48 21.44 48 16 48 C16 53.28 16 58.56 16 64 C5.44 64 -5.12 64 -16 64 C-16 48.16 -16 32.32 -16 16 C-10.72 16 -5.44 16 0 16 C0 10.72 0 5.44 0 0 Z " fill="#B9B9B9" transform="translate(448,0)"/>
<path d="M0 0 C5.28 0 10.56 0 16 0 C16 26.4 16 52.8 16 80 C10.72 80 5.44 80 0 80 C0 74.72 0 69.44 0 64 C-15.84 64 -31.68 64 -48 64 C-48 59.05 -48 54.1 -48 49 C-40.08 48.505 -40.08 48.505 -32 48 C-31.67 42.72 -31.34 37.44 -31 32 C-26.05 32 -21.1 32 -16 32 C-16 26.72 -16 21.44 -16 16 C-10.72 16 -5.44 16 0 16 C0 10.72 0 5.44 0 0 Z " fill="#284125" transform="translate(128,272)"/>
<path d="M0 0 C10.56 0 21.12 0 32 0 C32 5.28 32 10.56 32 16 C26.72 16 21.44 16 16 16 C16 21.28 16 26.56 16 32 C10.72 32 5.44 32 0 32 C0 37.28 0 42.56 0 48 C-10.56 48 -21.12 48 -32 48 C-32 42.72 -32 37.44 -32 32 C-47.84 32 -63.68 32 -80 32 C-80 26.72 -80 21.44 -80 16 C-53.6 16 -27.2 16 0 16 C0 10.72 0 5.44 0 0 Z " fill="#661312" transform="translate(288,400)"/>
<path d="M0 0 C5.28 0 10.56 0 16 0 C16 5.28 16 10.56 16 16 C21.28 16 26.56 16 32 16 C32 21.28 32 26.56 32 32 C58.4 32 84.8 32 112 32 C112 37.28 112 42.56 112 48 C80.32 48 48.64 48 16 48 C16 42.72 16 37.44 16 32 C10.72 32 5.44 32 0 32 C0 21.44 0 10.88 0 0 Z " fill="#CFCDCD" transform="translate(368,416)"/>
<path d="M0 0 C5.28 0 10.56 0 16 0 C16 5.28 16 10.56 16 16 C26.56 16 37.12 16 48 16 C48 21.28 48 26.56 48 32 C42.72 32 37.44 32 32 32 C32 37.28 32 42.56 32 48 C37.28 48 42.56 48 48 48 C48 53.28 48 58.56 48 64 C32.16 64 16.32 64 0 64 C0 42.88 0 21.76 0 0 Z " fill="#3C2B1D" transform="translate(16,336)"/>
<path d="M0 0 C21.12 0 42.24 0 64 0 C64 5.28 64 10.56 64 16 C53.44 16 42.88 16 32 16 C32 31.84 32 47.68 32 64 C26.72 64 21.44 64 16 64 C16 53.44 16 42.88 16 32 C5.44 32 -5.12 32 -16 32 C-16 26.72 -16 21.44 -16 16 C-10.72 16 -5.44 16 0 16 C0 10.72 0 5.44 0 0 Z " fill="#264225" transform="translate(96,208)"/>
<path d="M0 0 C42.24 0 84.48 0 128 0 C128 5.28 128 10.56 128 16 C85.76 16 43.52 16 0 16 C0 10.72 0 5.44 0 0 Z " fill="#010002" transform="translate(160,224)"/>
<path d="M0 0 C26.4 0 52.8 0 80 0 C80 5.28 80 10.56 80 16 C90.56 16 101.12 16 112 16 C112 21.28 112 26.56 112 32 C96.16 32 80.32 32 64 32 C64 26.72 64 21.44 64 16 C42.88 16 21.76 16 0 16 C0 10.72 0 5.44 0 0 Z " fill="#CBCDCE" transform="translate(272,48)"/>
<path d="M0 0 C10.56 0 21.12 0 32 0 C32 5.28 32 10.56 32 16 C37.28 16 42.56 16 48 16 C48 21.28 48 26.56 48 32 C42.72 32 37.44 32 32 32 C32 37.28 32 42.56 32 48 C21.44 48 10.88 48 0 48 C0 42.72 0 37.44 0 32 C-5.28 32 -10.56 32 -16 32 C-16 26.72 -16 21.44 -16 16 C-10.72 16 -5.44 16 0 16 C0 10.72 0 5.44 0 0 Z " fill="#FCE005" transform="translate(32,32)"/>
<path d="M0 0 C36.96 0 73.92 0 112 0 C112 5.28 112 10.56 112 16 C75.04 16 38.08 16 0 16 C0 10.72 0 5.44 0 0 Z " fill="#E5E5E5" transform="translate(176,464)"/>
<path d="M0 0 C15.84 0 31.68 0 48 0 C48 21.12 48 42.24 48 64 C42.72 64 37.44 64 32 64 C32 58.72 32 53.44 32 48 C26.72 48 21.44 48 16 48 C16 42.72 16 37.44 16 32 C21.28 32 26.56 32 32 32 C32 26.72 32 21.44 32 16 C21.44 16 10.88 16 0 16 C0 10.72 0 5.44 0 0 Z " fill="#513C27" transform="translate(32,336)"/>
<path d="M0 0 C10.56 0 21.12 0 32 0 C32 5.28 32 10.56 32 16 C37.28 16 42.56 16 48 16 C48 21.28 48 26.56 48 32 C42.72 32 37.44 32 32 32 C32 37.28 32 42.56 32 48 C21.44 48 10.88 48 0 48 C0 32.16 0 16.32 0 0 Z " fill="#E5E4E4" transform="translate(128,224)"/>
<path d="M0 0 C10.56 0 21.12 0 32 0 C32 10.56 32 21.12 32 32 C26.72 32 21.44 32 16 32 C16 47.84 16 63.68 16 80 C10.72 80 5.44 80 0 80 C0 53.6 0 27.2 0 0 Z " fill="#B9B9B7" transform="translate(0,64)"/>
<path d="M0 0 C10.56 0 21.12 0 32 0 C32 15.84 32 31.68 32 48 C21.44 48 10.88 48 0 48 C0 42.72 0 37.44 0 32 C-5.28 32 -10.56 32 -16 32 C-16 26.72 -16 21.44 -16 16 C-10.72 16 -5.44 16 0 16 C0 10.72 0 5.44 0 0 Z " fill="#2295F1" transform="translate(480,32)"/>
<path d="M0 0 C15.84 0 31.68 0 48 0 C48 10.56 48 21.12 48 32 C32.16 32 16.32 32 0 32 C0 21.44 0 10.88 0 0 Z " fill="#D73E32" transform="translate(224,352)"/>
<path d="M0 0 C26.4 0 52.8 0 80 0 C80 5.28 80 10.56 80 16 C64.16 16 48.32 16 32 16 C32 21.28 32 26.56 32 32 C26.72 32 21.44 32 16 32 C16 26.72 16 21.44 16 16 C10.72 16 5.44 16 0 16 C0 10.72 0 5.44 0 0 Z " fill="#000001" transform="translate(304,256)"/>
<path d="M0 0 C15.84 0 31.68 0 48 0 C48 15.84 48 31.68 48 48 C42.72 48 37.44 48 32 48 C32 37.44 32 26.88 32 16 C21.44 16 10.88 16 0 16 C0 10.72 0 5.44 0 0 Z " fill="#000000" transform="translate(288,352)"/>
<path d="M0 0 C21.12 0 42.24 0 64 0 C64 10.56 64 21.12 64 32 C58.72 32 53.44 32 48 32 C48 26.72 48 21.44 48 16 C32.16 16 16.32 16 0 16 C0 10.72 0 5.44 0 0 Z " fill="#000002" transform="translate(384,272)"/>
<path d="M0 0 C5.28 0 10.56 0 16 0 C16 26.4 16 52.8 16 80 C10.72 80 5.44 80 0 80 C0 53.6 0 27.2 0 0 Z " fill="#000000" transform="translate(128,272)"/>
<path d="M0 0 C5.28 0 10.56 0 16 0 C16 5.28 16 10.56 16 16 C20.95 16 25.9 16 31 16 C31 21.28 31 26.56 31 32 C26.05 32 21.1 32 16 32 C16 36.95 16 41.9 16 47 C10.72 47 5.44 47 0 47 C0 42.38 0 37.76 0 33 C-5.28 33 -10.56 33 -16 33 C-16 27.06 -16 21.12 -16 15 C-10.72 15 -5.44 15 0 15 C0 10.05 0 5.1 0 0 Z " fill="#254225" transform="translate(80,256)"/>
<path d="M0 0 C10.56 0 21.12 0 32 0 C32 5.28 32 10.56 32 16 C26.72 16 21.44 16 16 16 C16 21.28 16 26.56 16 32 C0.16 32 -15.68 32 -32 32 C-32 26.72 -32 21.44 -32 16 C-21.44 16 -10.88 16 0 16 C0 10.72 0 5.44 0 0 Z " fill="#B5B7B8" transform="translate(112,96)"/>
<path d="M0 0 C10.56 0 21.12 0 32 0 C32 5.28 32 10.56 32 16 C26.72 16 21.44 16 16 16 C16 26.56 16 37.12 16 48 C5.44 48 -5.12 48 -16 48 C-16 42.72 -16 37.44 -16 32 C-10.72 32 -5.44 32 0 32 C0 21.44 0 10.88 0 0 Z " fill="#55AEF6" transform="translate(96,64)"/>
<path d="M0 0 C5.28 0 10.56 0 16 0 C16 10.56 16 21.12 16 32 C10.72 32 5.44 32 0 32 C0 37.28 0 42.56 0 48 C-10.56 48 -21.12 48 -32 48 C-32 42.72 -32 37.44 -32 32 C-26.72 32 -21.44 32 -16 32 C-16 26.72 -16 21.44 -16 16 C-10.72 16 -5.44 16 0 16 C0 10.72 0 5.44 0 0 Z " fill="#E2F3FE" transform="translate(128,16)"/>
<path d="M0 0 C5.28 0 10.56 0 16 0 C16 5.28 16 10.56 16 16 C21.28 16 26.56 16 32 16 C32 21.28 32 26.56 32 32 C21.44 32 10.88 32 0 32 C0 37.28 0 42.56 0 48 C-5.28 48 -10.56 48 -16 48 C-16 37.44 -16 26.88 -16 16 C-10.72 16 -5.44 16 0 16 C0 10.72 0 5.44 0 0 Z " fill="#FDFFFE" transform="translate(80,0)"/>
<path d="M0 0 C42.24 0 84.48 0 128 0 C128 5.28 128 10.56 128 16 C122.39 16 116.78 16 111 16 C111 11.05 111 6.1 111 1 C74.7 1 38.4 1 1 1 C1 5.95 1 10.9 1 16 C16.51 16 32.02 16 48 16 C48 21.28 48 26.56 48 32 C32.16 32 16.32 32 0 32 C0 27.05 0 22.1 0 17 C-4.95 17 -9.9 17 -15 17 C-15 21.95 -15 26.9 -15 32 C-15.33 32 -15.66 32 -16 32 C-16 26.72 -16 21.44 -16 16 C-10.72 16 -5.44 16 0 16 C0 10.72 0 5.44 0 0 Z " fill="#AB1515" transform="translate(176,240)"/>
<path d="M0 0 C5.28 0 10.56 0 16 0 C16 5.28 16 10.56 16 16 C21.28 16 26.56 16 32 16 C32 21.28 32 26.56 32 32 C26.72 32 21.44 32 16 32 C16 37.28 16 42.56 16 48 C11.05 48 6.1 48 1 48 C1 53.28 1 58.56 1 64 C-4.61 64 -10.22 64 -16 64 C-16 58.72 -16 53.44 -16 48 C-10.72 48 -5.44 48 0 48 C0 42.72 0 37.44 0 32 C4.95 32 9.9 32 15 32 C15 26.72 15 21.44 15 16 C10.05 16 5.1 16 0 16 C0 10.72 0 5.44 0 0 Z " fill="#24321C" transform="translate(96,256)"/>
<path d="M0 0 C5.28 0 10.56 0 16 0 C16 5.28 16 10.56 16 16 C26.56 16 37.12 16 48 16 C48 21.28 48 26.56 48 32 C32.16 32 16.32 32 0 32 C0 21.44 0 10.88 0 0 Z " fill="#B9B9B9" transform="translate(160,432)"/>
<path d="M0 0 C21.12 0 42.24 0 64 0 C64 5.28 64 10.56 64 16 C42.88 16 21.76 16 0 16 C0 10.72 0 5.44 0 0 Z " fill="#E7C08B" transform="translate(160,352)"/>
<path d="M0 0 C5.28 0 10.56 0 16 0 C16 21.12 16 42.24 16 64 C10.72 64 5.44 64 0 64 C0 42.88 0 21.76 0 0 Z " fill="#000000" transform="translate(144,352)"/>
<path d="M0 0 C21.12 0 42.24 0 64 0 C64 5.28 64 10.56 64 16 C42.88 16 21.76 16 0 16 C0 10.72 0 5.44 0 0 Z " fill="#010001" transform="translate(448,304)"/>
<path d="M0 0 C5.28 0 10.56 0 16 0 C16 21.12 16 42.24 16 64 C10.72 64 5.44 64 0 64 C0 42.88 0 21.76 0 0 Z " fill="#B5B4B4" transform="translate(144,288)"/>
<path d="M0 0 C5.28 0 10.56 0 16 0 C16 21.12 16 42.24 16 64 C10.72 64 5.44 64 0 64 C0 42.88 0 21.76 0 0 Z " fill="#000000" transform="translate(336,288)"/>
<path d="M0 0 C21.12 0 42.24 0 64 0 C64 5.28 64 10.56 64 16 C42.88 16 21.76 16 0 16 C0 10.72 0 5.44 0 0 Z " fill="#E2F2FE" transform="translate(240,32)"/>
<path d="M0 0 C10.56 0 21.12 0 32 0 C32 5.28 32 10.56 32 16 C26.72 16 21.44 16 16 16 C16 21.28 16 26.56 16 32 C5.44 32 -5.12 32 -16 32 C-16 26.72 -16 21.44 -16 16 C-10.72 16 -5.44 16 0 16 C0 10.72 0 5.44 0 0 Z " fill="#FDFFFF" transform="translate(448,32)"/>
<path d="M0 0 C10.56 0 21.12 0 32 0 C32 5.28 32 10.56 32 16 C26.72 16 21.44 16 16 16 C16 21.28 16 26.56 16 32 C5.44 32 -5.12 32 -16 32 C-16 26.72 -16 21.44 -16 16 C-10.72 16 -5.44 16 0 16 C0 10.72 0 5.44 0 0 Z " fill="#CDCECB" transform="translate(48,0)"/>
<path d="M0 0 C10.56 0 21.12 0 32 0 C32 10.56 32 21.12 32 32 C21.44 32 10.88 32 0 32 C0 21.44 0 10.88 0 0 Z " fill="#E3F2FE" transform="translate(480,0)"/>
<path d="M0 0 C10.56 0 21.12 0 32 0 C32 10.23 32 20.46 32 31 C27.05 31 22.1 31 17 31 C16.67 31.33 16.34 31.66 16 32 C10.72 32 5.44 32 0 32 C0 21.44 0 10.88 0 0 Z " fill="#930403" transform="translate(160,400)"/>
<path d="M0 0 C15.84 0 31.68 0 48 0 C48 5.28 48 10.56 48 16 C32.16 16 16.32 16 0 16 C0 10.72 0 5.44 0 0 Z " fill="#B9B8B8" transform="translate(208,432)"/>
<path d="M0 0 C15.84 0 31.68 0 48 0 C48 5.28 48 10.56 48 16 C32.16 16 16.32 16 0 16 C0 10.72 0 5.44 0 0 Z " fill="#000000" transform="translate(208,416)"/>
<path d="M0 0 C15.84 0 31.68 0 48 0 C48 5.28 48 10.56 48 16 C32.16 16 16.32 16 0 16 C0 10.72 0 5.44 0 0 Z " fill="#FEFEFE" transform="translate(176,368)"/>
<path d="M0 0 C15.84 0 31.68 0 48 0 C48 5.28 48 10.56 48 16 C32.16 16 16.32 16 0 16 C0 10.72 0 5.44 0 0 Z " fill="#FEFEFE" transform="translate(80,336)"/>
<path d="M0 0 C5.28 0 10.56 0 16 0 C16 15.84 16 31.68 16 48 C10.72 48 5.44 48 0 48 C0 32.16 0 16.32 0 0 Z " fill="#000000" transform="translate(112,224)"/>
<path d="M0 0 C15.84 0 31.68 0 48 0 C48 5.28 48 10.56 48 16 C32.16 16 16.32 16 0 16 C0 10.72 0 5.44 0 0 Z " fill="#B7C3CC" transform="translate(464,80)"/>
<path d="M0 0 C10.56 0 21.12 0 32 0 C32 5.28 32 10.56 32 16 C26.72 16 21.44 16 16 16 C16 21.28 16 26.56 16 32 C10.72 32 5.44 32 0 32 C0 21.44 0 10.88 0 0 Z " fill="#B8B9B8" transform="translate(80,32)"/>
<path d="M0 0 C10.56 0 21.12 0 32 0 C32 10.56 32 21.12 32 32 C26.72 32 21.44 32 16 32 C16 26.72 16 21.44 16 16 C10.72 16 5.44 16 0 16 C0 10.72 0 5.44 0 0 Z " fill="#CDCECE" transform="translate(448,0)"/>
<path d="M0 0 C10.56 0 21.12 0 32 0 C32 10.56 32 21.12 32 32 C26.72 32 21.44 32 16 32 C16 26.72 16 21.44 16 16 C10.72 16 5.44 16 0 16 C0 10.72 0 5.44 0 0 Z " fill="#E0F2FF" transform="translate(96,0)"/>
<path d="M0 0 C15.18 0 30.36 0 46 0 C46 4.95 46 9.9 46 15 C30.82 15 15.64 15 0 15 C0 10.05 0 5.1 0 0 Z " fill="#F34236" transform="translate(225,368)"/>
<path d="M0 0 C10.56 0 21.12 0 32 0 C32 4.95 32 9.9 32 15 C42.56 15 53.12 15 64 15 C64 15.33 64 15.66 64 16 C42.88 16 21.76 16 0 16 C0 10.72 0 5.44 0 0 Z " fill="#C3CCD2" transform="translate(272,48)"/>
<path d="M0 0 C5.28 0 10.56 0 16 0 C16 5.28 16 10.56 16 16 C21.28 16 26.56 16 32 16 C32 21.28 32 26.56 32 32 C26.39 32 20.78 32 15 32 C15 26.72 15 21.44 15 16 C10.05 16 5.1 16 0 16 C0 10.72 0 5.44 0 0 Z " fill="#223220" transform="translate(96,256)"/>
<path d="M0 0 C5.28 0 10.56 0 16 0 C16 10.56 16 21.12 16 32 C10.72 32 5.44 32 0 32 C0 21.44 0 10.88 0 0 Z " fill="#E5E5E5" transform="translate(160,432)"/>
<path d="M0 0 C10.56 0 21.12 0 32 0 C32 5.28 32 10.56 32 16 C21.44 16 10.88 16 0 16 C0 10.72 0 5.44 0 0 Z " fill="#010000" transform="translate(256,432)"/>
<path d="M0 0 C10.56 0 21.12 0 32 0 C32 5.28 32 10.56 32 16 C21.44 16 10.88 16 0 16 C0 10.72 0 5.44 0 0 Z " fill="#010000" transform="translate(176,432)"/>
<path d="M0 0 C5.28 0 10.56 0 16 0 C16 10.56 16 21.12 16 32 C10.72 32 5.44 32 0 32 C0 21.44 0 10.88 0 0 Z " fill="#CECDCD" transform="translate(288,432)"/>
<path d="M0 0 C10.56 0 21.12 0 32 0 C32 5.28 32 10.56 32 16 C21.44 16 10.88 16 0 16 C0 10.72 0 5.44 0 0 Z " fill="#6A0101" transform="translate(256,416)"/>
<path d="M0 0 C10.56 0 21.12 0 32 0 C32 5.28 32 10.56 32 16 C21.44 16 10.88 16 0 16 C0 10.72 0 5.44 0 0 Z " fill="#BE0000" transform="translate(432,416)"/>
<path d="M0 0 C5.28 0 10.56 0 16 0 C16 10.56 16 21.12 16 32 C10.72 32 5.44 32 0 32 C0 21.44 0 10.88 0 0 Z " fill="#BFBEBE" transform="translate(160,368)"/>
<path d="M0 0 C10.56 0 21.12 0 32 0 C32 5.28 32 10.56 32 16 C21.44 16 10.88 16 0 16 C0 10.72 0 5.44 0 0 Z " fill="#E7C08B" transform="translate(288,352)"/>
<path d="M0 0 C10.56 0 21.12 0 32 0 C32 5.28 32 10.56 32 16 C21.44 16 10.88 16 0 16 C0 10.72 0 5.44 0 0 Z " fill="#DB3131" transform="translate(448,336)"/>
<path d="M0 0 C5.28 0 10.56 0 16 0 C16 5.28 16 10.56 16 16 C21.28 16 26.56 16 32 16 C32 20.95 32 25.9 32 31 C26.72 31 21.44 31 16 31 C16 26.38 16 21.76 16 17 C10.72 17 5.44 17 0 17 C0 11.39 0 5.78 0 0 Z " fill="#254225" transform="translate(64,272)"/>
<path d="M0 0 C10.56 0 21.12 0 32 0 C32 5.28 32 10.56 32 16 C21.44 16 10.88 16 0 16 C0 10.72 0 5.44 0 0 Z " fill="#CECCCC" transform="translate(128,256)"/>
<path d="M0 0 C10.56 0 21.12 0 32 0 C32 5.28 32 10.56 32 16 C21.44 16 10.88 16 0 16 C0 10.72 0 5.44 0 0 Z " fill="#FEFFFE" transform="translate(128,224)"/>
<path d="M0 0 C10.56 0 21.12 0 32 0 C32 5.28 32 10.56 32 16 C21.44 16 10.88 16 0 16 C0 10.72 0 5.44 0 0 Z " fill="#000002" transform="translate(128,208)"/>
<path d="M0 0 C5.28 0 10.56 0 16 0 C16 10.56 16 21.12 16 32 C10.72 32 5.44 32 0 32 C0 21.44 0 10.88 0 0 Z " fill="#22321D" transform="translate(96,176)"/>
<path d="M0 0 C10.56 0 21.12 0 32 0 C32 5.28 32 10.56 32 16 C21.44 16 10.88 16 0 16 C0 10.72 0 5.44 0 0 Z " fill="#DBF0FE" transform="translate(112,96)"/>
<path d="M0 0 C10.56 0 21.12 0 32 0 C32 5.28 32 10.56 32 16 C21.44 16 10.88 16 0 16 C0 10.72 0 5.44 0 0 Z " fill="#56ADF4" transform="translate(432,80)"/>
<path d="M0 0 C10.56 0 21.12 0 32 0 C32 5.28 32 10.56 32 16 C21.44 16 10.88 16 0 16 C0 10.72 0 5.44 0 0 Z " fill="#56ACF2" transform="translate(304,64)"/>
<path d="M0 0 C10.56 0 21.12 0 32 0 C32 5.28 32 10.56 32 16 C21.44 16 10.88 16 0 16 C0 10.72 0 5.44 0 0 Z " fill="#57ADF4" transform="translate(464,48)"/>
<path d="M0 0 C10.56 0 21.12 0 32 0 C32 5.28 32 10.56 32 16 C21.44 16 10.88 16 0 16 C0 10.72 0 5.44 0 0 Z " fill="#58ACF1" transform="translate(256,16)"/>
<path d="M0 0 C5.28 0 10.56 0 16 0 C16 10.56 16 21.12 16 32 C10.72 32 5.44 32 0 32 C0 21.44 0 10.88 0 0 Z " fill="#E5E5E1" transform="translate(16,16)"/>
<path d="M0 0 C10.56 0 21.12 0 32 0 C32 5.28 32 10.56 32 16 C21.44 16 10.88 16 0 16 C0 10.72 0 5.44 0 0 Z " fill="#54AEF7" transform="translate(128,0)"/>
<path d="M0 0 C10.56 0 21.12 0 32 0 C32 5.28 32 10.56 32 16 C21.44 16 10.88 16 0 16 C0 10.72 0 5.44 0 0 Z " fill="#3EA0EE" transform="translate(48,0)"/>
<path d="M0 0 C4.95 0 9.9 0 15 0 C15.76602183 10.05403653 16.09602554 19.91731854 16 30 C11.05 30 6.1 30 1 30 C0.23397817 19.94596347 -0.09602554 10.08268146 0 0 Z " fill="#A90000" transform="translate(176,401)"/>
<path d="M0 0 C5.28 0 10.56 0 16 0 C16 5.28 16 10.56 16 16 C-15.68 16 -47.36 16 -80 16 C-80 15.67 -80 15.34 -80 15 C-53.6 15 -27.2 15 0 15 C0 10.05 0 5.1 0 0 Z " fill="#A3B3C0" transform="translate(464,64)"/>
<path d="M0 0 C5.28 0 10.56 0 16 0 C16 26.4 16 52.8 16 80 C10.72 80 5.44 80 0 80 C0 74.72 0 69.44 0 64 C4.95 64 9.9 64 15 64 C15 43.21 15 22.42 15 1 C10.05 1 5.1 1 0 1 C0 0.67 0 0.34 0 0 Z " fill="#B70505" transform="translate(480,352)"/>
<path d="M0 0 C15.84 0 31.68 0 48 0 C48 5.28 48 10.56 48 16 C32.16 16 16.32 16 0 16 C0 15.67 0 15.34 0 15 C10.56 15 21.12 15 32 15 C32 10.38 32 5.76 32 1 C21.44 1 10.88 1 0 1 C0 0.67 0 0.34 0 0 Z " fill="#B0C2D0" transform="translate(80,112)"/>
<path d="M0 0 C15.84 0 31.68 0 48 0 C48 0.33 48 0.66 48 1 C37.44 1 26.88 1 16 1 C16 5.62 16 10.24 16 15 C26.56 15 37.12 15 48 15 C48 15.33 48 15.66 48 16 C32.16 16 16.32 16 0 16 C0 10.72 0 5.44 0 0 Z " fill="#B3C6D4" transform="translate(464,80)"/>
<path d="M0 0 C10.56 0 21.12 0 32 0 C32 10.56 32 21.12 32 32 C31.67 32 31.34 32 31 32 C31 26.72 31 21.44 31 16 C26.05 16 21.1 16 16 16 C16 11.05 16 6.1 16 1 C10.72 1 5.44 1 0 1 C0 0.67 0 0.34 0 0 Z " fill="#22412B" transform="translate(80,144)"/>
<path d="M0 0 C5.28 0 10.56 0 16 0 C16 4.95 16 9.9 16 15 C26.56 15 37.12 15 48 15 C48 15.33 48 15.66 48 16 C32.16 16 16.32 16 0 16 C0 10.72 0 5.44 0 0 Z " fill="#AFCCE4" transform="translate(336,64)"/>
<path d="M0 0 C5.28 0 10.56 0 16 0 C16 4.95 16 9.9 16 15 C21.28 15 26.56 15 32 15 C32 15.33 32 15.66 32 16 C21.44 16 10.88 16 0 16 C0 10.72 0 5.44 0 0 Z " fill="#2186D6" transform="translate(480,64)"/>
<path d="M0 0 C0.33 0 0.66 0 1 0 C1 10.56 1 21.12 1 32 C-4.28 32 -9.56 32 -15 32 C-14.67 26.72 -14.34 21.44 -14 16 C-9.38 16 -4.76 16 0 16 C0 10.72 0 5.44 0 0 Z " fill="#ECF8FE" transform="translate(95,64)"/>
<path d="M0 0 C5.28 0 10.56 0 16 0 C16 5.28 16 10.56 16 16 C10.72 16 5.44 16 0 16 C0 10.72 0 5.44 0 0 Z " fill="#D1CCCC" transform="translate(480,432)"/>
<path d="M0 0 C5.28 0 10.56 0 16 0 C16 5.28 16 10.56 16 16 C10.72 16 5.44 16 0 16 C0 10.72 0 5.44 0 0 Z " fill="#CECDCD" transform="translate(160,432)"/>
<path d="M0 0 C5.28 0 10.56 0 16 0 C16 5.28 16 10.56 16 16 C10.72 16 5.44 16 0 16 C0 10.72 0 5.44 0 0 Z " fill="#020000" transform="translate(288,416)"/>
<path d="M0 0 C5.28 0 10.56 0 16 0 C16 5.28 16 10.56 16 16 C10.72 16 5.44 16 0 16 C0 10.72 0 5.44 0 0 Z " fill="#030000" transform="translate(160,416)"/>
<path d="M0 0 C5.28 0 10.56 0 16 0 C16 5.28 16 10.56 16 16 C10.72 16 5.44 16 0 16 C0 10.72 0 5.44 0 0 Z " fill="#BE0000" transform="translate(416,400)"/>
<path d="M0 0 C5.28 0 10.56 0 16 0 C16 5.28 16 10.56 16 16 C10.72 16 5.44 16 0 16 C0 10.72 0 5.44 0 0 Z " fill="#000000" transform="translate(304,400)"/>
<path d="M0 0 C5.28 0 10.56 0 16 0 C16 5.28 16 10.56 16 16 C10.72 16 5.44 16 0 16 C0 10.72 0 5.44 0 0 Z " fill="#6D6868" transform="translate(192,400)"/>
<path d="M0 0 C5.28 0 10.56 0 16 0 C16 5.28 16 10.56 16 16 C10.72 16 5.44 16 0 16 C0 10.72 0 5.44 0 0 Z " fill="#01006D" transform="translate(288,352)"/>
<path d="M0 0 C5.28 0 10.56 0 16 0 C16 5.28 16 10.56 16 16 C10.72 16 5.44 16 0 16 C0 10.72 0 5.44 0 0 Z " fill="#E9BF8A" transform="translate(272,352)"/>
<path d="M0 0 C5.28 0 10.56 0 16 0 C16 5.28 16 10.56 16 16 C10.72 16 5.44 16 0 16 C0 10.72 0 5.44 0 0 Z " fill="#E9BF8A" transform="translate(208,352)"/>
<path d="M0 0 C5.28 0 10.56 0 16 0 C16 5.28 16 10.56 16 16 C10.72 16 5.44 16 0 16 C0 10.72 0 5.44 0 0 Z " fill="#01006D" transform="translate(192,352)"/>
<path d="M0 0 C5.28 0 10.56 0 16 0 C16 5.28 16 10.56 16 16 C10.72 16 5.44 16 0 16 C0 10.72 0 5.44 0 0 Z " fill="#BFA88D" transform="translate(160,352)"/>
<path d="M0 0 C5.28 0 10.56 0 16 0 C16 5.28 16 10.56 16 16 C10.72 16 5.44 16 0 16 C0 10.72 0 5.44 0 0 Z " fill="#FEFFFE" transform="translate(0,336)"/>
<path d="M0 0 C5.28 0 10.56 0 16 0 C16 5.28 16 10.56 16 16 C10.72 16 5.44 16 0 16 C0 10.72 0 5.44 0 0 Z " fill="#DE3030" transform="translate(432,320)"/>
<path d="M0 0 C5.28 0 10.56 0 16 0 C16 5.28 16 10.56 16 16 C10.72 16 5.44 16 0 16 C0 10.72 0 5.44 0 0 Z " fill="#F20503" transform="translate(80,304)"/>
<path d="M0 0 C5.28 0 10.56 0 16 0 C16 5.28 16 10.56 16 16 C10.72 16 5.44 16 0 16 C0 10.72 0 5.44 0 0 Z " fill="#11F808" transform="translate(16,304)"/>
<path d="M0 0 C5.28 0 10.56 0 16 0 C16 5.28 16 10.56 16 16 C10.72 16 5.44 16 0 16 C0 10.72 0 5.44 0 0 Z " fill="#771F20" transform="translate(144,272)"/>
<path d="M0 0 C5.28 0 10.56 0 16 0 C16 5.28 16 10.56 16 16 C10.72 16 5.44 16 0 16 C0 10.72 0 5.44 0 0 Z " fill="#9405F3" transform="translate(112,272)"/>
<path d="M0 0 C5.28 0 10.56 0 16 0 C16 5.28 16 10.56 16 16 C10.72 16 5.44 16 0 16 C0 10.72 0 5.44 0 0 Z " fill="#0AFADD" transform="translate(64,272)"/>
<path d="M0 0 C5.28 0 10.56 0 16 0 C16 5.28 16 10.56 16 16 C10.72 16 5.44 16 0 16 C0 10.72 0 5.44 0 0 Z " fill="#F20503" transform="translate(32,256)"/>
<path d="M0 0 C5.28 0 10.56 0 16 0 C16 5.28 16 10.56 16 16 C10.72 16 5.44 16 0 16 C0 10.72 0 5.44 0 0 Z " fill="#030003" transform="translate(288,240)"/>
<path d="M0 0 C5.28 0 10.56 0 16 0 C16 5.28 16 10.56 16 16 C10.72 16 5.44 16 0 16 C0 10.72 0 5.44 0 0 Z " fill="#D0CBCB" transform="translate(160,240)"/>
<path d="M0 0 C5.28 0 10.56 0 16 0 C16 5.28 16 10.56 16 16 C10.72 16 5.44 16 0 16 C0 10.72 0 5.44 0 0 Z " fill="#11F808" transform="translate(80,224)"/>
<path d="M0 0 C5.28 0 10.56 0 16 0 C16 5.28 16 10.56 16 16 C10.72 16 5.44 16 0 16 C0 10.72 0 5.44 0 0 Z " fill="#0AFADD" transform="translate(48,224)"/>
<path d="M0 0 C5.28 0 10.56 0 16 0 C16 5.28 16 10.56 16 16 C10.72 16 5.44 16 0 16 C0 10.72 0 5.44 0 0 Z " fill="#0233F5" transform="translate(0,224)"/>
<path d="M0 0 C5.28 0 10.56 0 16 0 C16 5.28 16 10.56 16 16 C10.72 16 5.44 16 0 16 C0 10.72 0 5.44 0 0 Z " fill="#F20503" transform="translate(16,192)"/>
<path d="M0 0 C5.28 0 10.56 0 16 0 C16 5.28 16 10.56 16 16 C10.72 16 5.44 16 0 16 C0 10.72 0 5.44 0 0 Z " fill="#284125" transform="translate(80,192)"/>
<path d="M0 0 C5.28 0 10.56 0 16 0 C16 5.28 16 10.56 16 16 C10.72 16 5.44 16 0 16 C0 10.72 0 5.44 0 0 Z " fill="#F10505" transform="translate(96,176)"/>
<path d="M0 0 C5.28 0 10.56 0 16 0 C16 5.28 16 10.56 16 16 C10.72 16 5.44 16 0 16 C0 10.72 0 5.44 0 0 Z " fill="#0333F2" transform="translate(48,176)"/>
<path d="M0 0 C5.28 0 10.56 0 16 0 C16 5.28 16 10.56 16 16 C10.72 16 5.44 16 0 16 C0 10.72 0 5.44 0 0 Z " fill="#9503F6" transform="translate(0,160)"/>
<path d="M0 0 C5.28 0 10.56 0 16 0 C16 5.28 16 10.56 16 16 C10.72 16 5.44 16 0 16 C0 10.72 0 5.44 0 0 Z " fill="#11F808" transform="translate(32,128)"/>
<path d="M0 0 C5.28 0 10.56 0 16 0 C16 5.28 16 10.56 16 16 C10.72 16 5.44 16 0 16 C0 10.72 0 5.44 0 0 Z " fill="#2495ED" transform="translate(0,128)"/>
<path d="M0 0 C5.28 0 10.56 0 16 0 C16 5.28 16 10.56 16 16 C10.72 16 5.44 16 0 16 C0 10.72 0 5.44 0 0 Z " fill="#AFDAFA" transform="translate(0,112)"/>
<path d="M0 0 C5.28 0 10.56 0 16 0 C16 5.28 16 10.56 16 16 C10.72 16 5.44 16 0 16 C0 10.72 0 5.44 0 0 Z " fill="#58ADF2" transform="translate(80,96)"/>
<path d="M0 0 C5.28 0 10.56 0 16 0 C16 5.28 16 10.56 16 16 C10.72 16 5.44 16 0 16 C0 10.72 0 5.44 0 0 Z " fill="#F20503" transform="translate(48,96)"/>
<path d="M0 0 C5.28 0 10.56 0 16 0 C16 5.28 16 10.56 16 16 C10.72 16 5.44 16 0 16 C0 10.72 0 5.44 0 0 Z " fill="#2495EE" transform="translate(96,96)"/>
<path d="M0 0 C5.28 0 10.56 0 16 0 C16 5.28 16 10.56 16 16 C10.72 16 5.44 16 0 16 C0 10.72 0 5.44 0 0 Z " fill="#CACCCE" transform="translate(0,96)"/>
<path d="M0 0 C5.28 0 10.56 0 16 0 C16 5.28 16 10.56 16 16 C10.72 16 5.44 16 0 16 C0 10.72 0 5.44 0 0 Z " fill="#55AEF6" transform="translate(96,80)"/>
<path d="M0 0 C5.28 0 10.56 0 16 0 C16 5.28 16 10.56 16 16 C10.72 16 5.44 16 0 16 C0 10.72 0 5.44 0 0 Z " fill="#FAE00C" transform="translate(64,80)"/>
<path d="M0 0 C5.28 0 10.56 0 16 0 C16 5.28 16 10.56 16 16 C10.72 16 5.44 16 0 16 C0 10.72 0 5.44 0 0 Z " fill="#FAE00C" transform="translate(16,80)"/>
<path d="M0 0 C5.28 0 10.56 0 16 0 C16 5.28 16 10.56 16 16 C10.72 16 5.44 16 0 16 C0 10.72 0 5.44 0 0 Z " fill="#2495EE" transform="translate(96,64)"/>
<path d="M0 0 C5.28 0 10.56 0 16 0 C16 5.28 16 10.56 16 16 C10.72 16 5.44 16 0 16 C0 10.72 0 5.44 0 0 Z " fill="#D0CEC4" transform="translate(16,64)"/>
<path d="M0 0 C5.28 0 10.56 0 16 0 C16 5.28 16 10.56 16 16 C10.72 16 5.44 16 0 16 C0 10.72 0 5.44 0 0 Z " fill="#E4E5E5" transform="translate(432,48)"/>
<path d="M0 0 C5.28 0 10.56 0 16 0 C16 5.28 16 10.56 16 16 C10.72 16 5.44 16 0 16 C0 10.72 0 5.44 0 0 Z " fill="#8CB0CC" transform="translate(272,48)"/>
<path d="M0 0 C5.28 0 10.56 0 16 0 C16 5.28 16 10.56 16 16 C10.72 16 5.44 16 0 16 C0 10.72 0 5.44 0 0 Z " fill="#FDFFFF" transform="translate(96,48)"/>
<path d="M0 0 C5.28 0 10.56 0 16 0 C16 5.28 16 10.56 16 16 C10.72 16 5.44 16 0 16 C0 10.72 0 5.44 0 0 Z " fill="#CECECA" transform="translate(80,48)"/>
<path d="M0 0 C5.28 0 10.56 0 16 0 C16 5.28 16 10.56 16 16 C10.72 16 5.44 16 0 16 C0 10.72 0 5.44 0 0 Z " fill="#E5E5E1" transform="translate(0,48)"/>
<path d="M0 0 C5.28 0 10.56 0 16 0 C16 5.28 16 10.56 16 16 C10.72 16 5.44 16 0 16 C0 10.72 0 5.44 0 0 Z " fill="#ACDAFC" transform="translate(240,32)"/>
<path d="M0 0 C5.28 0 10.56 0 16 0 C16 5.28 16 10.56 16 16 C10.72 16 5.44 16 0 16 C0 10.72 0 5.44 0 0 Z " fill="#FDFFFF" transform="translate(112,32)"/>
<path d="M0 0 C5.28 0 10.56 0 16 0 C16 5.28 16 10.56 16 16 C10.72 16 5.44 16 0 16 C0 10.72 0 5.44 0 0 Z " fill="#CECECE" transform="translate(432,32)"/>
<path d="M0 0 C5.28 0 10.56 0 16 0 C16 5.28 16 10.56 16 16 C10.72 16 5.44 16 0 16 C0 10.72 0 5.44 0 0 Z " fill="#B8B9B9" transform="translate(416,32)"/>
<path d="M0 0 C5.28 0 10.56 0 16 0 C16 5.28 16 10.56 16 16 C10.72 16 5.44 16 0 16 C0 10.72 0 5.44 0 0 Z " fill="#E6E5DE" transform="translate(64,32)"/>
<path d="M0 0 C5.28 0 10.56 0 16 0 C16 5.28 16 10.56 16 16 C10.72 16 5.44 16 0 16 C0 10.72 0 5.44 0 0 Z " fill="#FEFFFE" transform="translate(0,32)"/>
<path d="M0 0 C5.28 0 10.56 0 16 0 C16 5.28 16 10.56 16 16 C10.72 16 5.44 16 0 16 C0 10.72 0 5.44 0 0 Z " fill="#59ACF0" transform="translate(112,16)"/>
<path d="M0 0 C5.28 0 10.56 0 16 0 C16 5.28 16 10.56 16 16 C10.72 16 5.44 16 0 16 C0 10.72 0 5.44 0 0 Z " fill="#FDFFFF" transform="translate(480,16)"/>
<path d="M0 0 C5.28 0 10.56 0 16 0 C16 5.28 16 10.56 16 16 C10.72 16 5.44 16 0 16 C0 10.72 0 5.44 0 0 Z " fill="#E5E5E5" transform="translate(416,16)"/>
<path d="M0 0 C5.28 0 10.56 0 16 0 C16 5.28 16 10.56 16 16 C10.72 16 5.44 16 0 16 C0 10.72 0 5.44 0 0 Z " fill="#2395EF" transform="translate(128,0)"/>
<path d="M0 0 C5.28 0 10.56 0 16 0 C16 5.28 16 10.56 16 16 C10.72 16 5.44 16 0 16 C0 10.72 0 5.44 0 0 Z " fill="#2594ED" transform="translate(96,0)"/>
<path d="M0 0 C5.28 0 10.56 0 16 0 C16 5.28 16 10.56 16 16 C10.72 16 5.44 16 0 16 C0 10.72 0 5.44 0 0 Z " fill="#E0E3E6" transform="translate(32,0)"/>
<path d="M0 0 C5.28 0 10.56 0 16 0 C16 5.28 16 10.56 16 16 C10.72 16 5.44 16 0 16 C0 10.72 0 5.44 0 0 Z " fill="#F5FBFE" transform="translate(16,0)"/>
<path d="M0 0 C4.95 0 9.9 0 15 0 C15 5.28 15 10.56 15 16 C10.05 16 5.1 16 0 16 C0 10.72 0 5.44 0 0 Z " fill="#20331C" transform="translate(81,272)"/>
<path d="M0 0 C4.95 0 9.9 0 15 0 C15 5.28 15 10.56 15 16 C10.05 16 5.1 16 0 16 C0 10.72 0 5.44 0 0 Z " fill="#21321D" transform="translate(97,224)"/>
<path d="M0 0 C4.95 0 9.9 0 15 0 C15 5.28 15 10.56 15 16 C10.05 16 5.1 16 0 16 C0 10.72 0 5.44 0 0 Z " fill="#23311B" transform="translate(96,160)"/>
<path d="M0 0 C5.28 0 10.56 0 16 0 C16 4.95 16 9.9 16 15 C10.72 15 5.44 15 0 15 C0 10.05 0 5.1 0 0 Z " fill="#3CA3F5" transform="translate(304,65)"/>
<path d="M0 0 C5.28 0 10.56 0 16 0 C16 4.95 16 9.9 16 15 C10.72 15 5.44 15 0 15 C0 10.05 0 5.1 0 0 Z " fill="#3CA3F5" transform="translate(256,16)"/>
<path d="M0 0 C4.95 0 9.9 0 15 0 C15 4.95 15 9.9 15 15 C10.05 15 5.1 15 0 15 C0 10.05 0 5.1 0 0 Z " fill="#AA0000" transform="translate(161,257)"/>
<path d="M0 0 C4.95 0 9.9 0 15 0 C15 4.95 15 9.9 15 15 C10.05 15 5.1 15 0 15 C0 10.05 0 5.1 0 0 Z " fill="#BD0000" transform="translate(177,241)"/>
<path d="M0 0 C4.95 0 9.9 0 15 0 C15 4.95 15 9.9 15 15 C10.05 15 5.1 15 0 15 C0 10.05 0 5.1 0 0 Z " fill="#CBD8E4" transform="translate(113,97)"/>
<path d="M0 0 C4.95 0 9.9 0 15 0 C15 4.95 15 9.9 15 15 C10.05 15 5.1 15 0 15 C0 10.05 0 5.1 0 0 Z " fill="#2196F2" transform="translate(49,0)"/>
<path d="M0 0 C5.28 0 10.56 0 16 0 C16 4.62 16 9.24 16 14 C10.72 14 5.44 14 0 14 C0 9.38 0 4.76 0 0 Z " fill="#CACCCE" transform="translate(480,81)"/>
</svg>
